# xmcd
#
# Track frame offsets:
#        150
#        10421
#        41201
#        75119
#        109130
#
# Disc length: 1864 seconds
#
# Revision: 0
# Processed by: cddbd v1.5.1PL2 Copyright (c) Steve Scherf et al.
# Submitted via: ExactAudioCopy v0.95b3
#
DISCID=31074605
DTITLE=House Headz - Stella (Maxi-Single)
DYEAR=2006
DGENRE=House
TTITLE0=Stella (Radio Edit)
TTITLE1=Stella (Original Vocal Mix)
TTITLE2=Stella (Asle's Full Blown Remix)
TTITLE3=Stella (Tim Hudson Remix)
TTITLE4=Stella (Original Dub Mix)
EXTD=
EXTT0=
EXTT1=
EXTT2=
EXTT3=
EXTT4=
PLAYORDER=
